<mxfile host="Electron" modified="2024-04-14T01:20:15.154Z" agent="Mozilla/5.0 (Windows NT 10.0; Win64; x64) AppleWebKit/537.36 (KHTML, like Gecko) draw.io/24.1.0 Chrome/120.0.6099.109 Electron/28.1.0 Safari/537.36" etag="znpjZzAJ_9ccIgMNhHop" version="24.1.0" type="device">
  <diagram name="Page-1" id="PEr-05Kz4Tjc-VRZEbms">
    <mxGraphModel dx="1430" dy="577" grid="1" gridSize="10" guides="1" tooltips="1" connect="1" arrows="1" fold="1" page="1" pageScale="1" pageWidth="827" pageHeight="1169" math="0" shadow="0">
      <root>
        <mxCell id="0" />
        <mxCell id="1" parent="0" />
        <mxCell id="9nGUcZ4Wk8Mk_ApcaRme-1" value="SYNC (0x55)&lt;br&gt;1-byte" style="rounded=0;whiteSpace=wrap;html=1;" vertex="1" parent="1">
          <mxGeometry x="80" y="120" width="120" height="60" as="geometry" />
        </mxCell>
        <mxCell id="9nGUcZ4Wk8Mk_ApcaRme-2" value="ID (0x02)&lt;br&gt;1-byte" style="rounded=0;whiteSpace=wrap;html=1;" vertex="1" parent="1">
          <mxGeometry x="200" y="120" width="120" height="60" as="geometry" />
        </mxCell>
        <mxCell id="9nGUcZ4Wk8Mk_ApcaRme-3" value="" style="endArrow=classic;startArrow=classic;html=1;rounded=0;" edge="1" parent="1">
          <mxGeometry width="50" height="50" relative="1" as="geometry">
            <mxPoint x="80" y="80" as="sourcePoint" />
            <mxPoint x="320" y="80" as="targetPoint" />
          </mxGeometry>
        </mxCell>
        <mxCell id="9nGUcZ4Wk8Mk_ApcaRme-4" value="MASTER" style="text;html=1;align=center;verticalAlign=middle;whiteSpace=wrap;rounded=0;" vertex="1" parent="1">
          <mxGeometry x="170" y="60" width="60" height="30" as="geometry" />
        </mxCell>
        <mxCell id="9nGUcZ4Wk8Mk_ApcaRme-5" value="DATA&lt;br&gt;8-bytes" style="rounded=0;whiteSpace=wrap;html=1;" vertex="1" parent="1">
          <mxGeometry x="330" y="120" width="350" height="60" as="geometry" />
        </mxCell>
        <mxCell id="9nGUcZ4Wk8Mk_ApcaRme-6" value="Checksum&lt;br&gt;(Enhanced)&lt;br&gt;1-byte)" style="rounded=0;whiteSpace=wrap;html=1;" vertex="1" parent="1">
          <mxGeometry x="680" y="120" width="120" height="60" as="geometry" />
        </mxCell>
        <mxCell id="9nGUcZ4Wk8Mk_ApcaRme-7" value="" style="endArrow=classic;startArrow=classic;html=1;rounded=0;" edge="1" parent="1">
          <mxGeometry width="50" height="50" relative="1" as="geometry">
            <mxPoint x="330" y="80" as="sourcePoint" />
            <mxPoint x="800" y="80" as="targetPoint" />
          </mxGeometry>
        </mxCell>
        <mxCell id="9nGUcZ4Wk8Mk_ApcaRme-8" value="SLAVE" style="text;html=1;align=center;verticalAlign=middle;whiteSpace=wrap;rounded=0;" vertex="1" parent="1">
          <mxGeometry x="530" y="60" width="60" height="30" as="geometry" />
        </mxCell>
        <mxCell id="9nGUcZ4Wk8Mk_ApcaRme-9" value="" style="endArrow=classic;startArrow=classic;html=1;rounded=0;" edge="1" parent="1">
          <mxGeometry width="50" height="50" relative="1" as="geometry">
            <mxPoint x="200" y="210" as="sourcePoint" />
            <mxPoint x="680" y="210" as="targetPoint" />
          </mxGeometry>
        </mxCell>
        <mxCell id="9nGUcZ4Wk8Mk_ApcaRme-12" value="Enhanced Checksum" style="text;html=1;align=center;verticalAlign=middle;whiteSpace=wrap;rounded=0;" vertex="1" parent="1">
          <mxGeometry x="220" y="202" width="136" height="30" as="geometry" />
        </mxCell>
        <mxCell id="9nGUcZ4Wk8Mk_ApcaRme-15" value="" style="endArrow=classic;startArrow=classic;html=1;rounded=0;" edge="1" parent="1">
          <mxGeometry width="50" height="50" relative="1" as="geometry">
            <mxPoint x="330" y="260" as="sourcePoint" />
            <mxPoint x="680" y="260" as="targetPoint" />
          </mxGeometry>
        </mxCell>
        <mxCell id="9nGUcZ4Wk8Mk_ApcaRme-16" value="Standard Checksum" style="text;html=1;align=center;verticalAlign=middle;whiteSpace=wrap;rounded=0;" vertex="1" parent="1">
          <mxGeometry x="346" y="252" width="136" height="30" as="geometry" />
        </mxCell>
        <mxCell id="9nGUcZ4Wk8Mk_ApcaRme-17" value="" style="endArrow=classic;startArrow=classic;html=1;rounded=0;" edge="1" parent="1">
          <mxGeometry width="50" height="50" relative="1" as="geometry">
            <mxPoint x="80" y="40" as="sourcePoint" />
            <mxPoint x="800" y="40" as="targetPoint" />
          </mxGeometry>
        </mxCell>
        <mxCell id="9nGUcZ4Wk8Mk_ApcaRme-18" value="Full Frame" style="text;html=1;align=center;verticalAlign=middle;whiteSpace=wrap;rounded=0;" vertex="1" parent="1">
          <mxGeometry x="410" y="18" width="60" height="30" as="geometry" />
        </mxCell>
      </root>
    </mxGraphModel>
  </diagram>
</mxfile>
